<mxfile host="app.diagrams.net" agent="Mozilla/5.0 (Macintosh; Intel Mac OS X 10_15_7) AppleWebKit/537.36 (KHTML, like Gecko) Chrome/136.0.0.0 Safari/537.36" version="27.1.1">
  <diagram name="第 1 页" id="mKnvXgXuS8pGYyAErCx5">
    <mxGraphModel dx="1234" dy="757" grid="1" gridSize="10" guides="1" tooltips="1" connect="1" arrows="1" fold="1" page="1" pageScale="1" pageWidth="1654" pageHeight="1169" math="0" shadow="0">
      <root>
        <mxCell id="0" />
        <mxCell id="1" parent="0" />
        <mxCell id="67hWNu62ocXWBOCx5b0s-8" style="edgeStyle=orthogonalEdgeStyle;rounded=0;orthogonalLoop=1;jettySize=auto;html=1;exitX=1;exitY=0.5;exitDx=0;exitDy=0;exitPerimeter=0;" parent="1" source="67hWNu62ocXWBOCx5b0s-1" target="67hWNu62ocXWBOCx5b0s-2" edge="1">
          <mxGeometry relative="1" as="geometry" />
        </mxCell>
        <mxCell id="67hWNu62ocXWBOCx5b0s-50" value="1 Bin log" style="edgeLabel;html=1;align=center;verticalAlign=middle;resizable=0;points=[];" parent="67hWNu62ocXWBOCx5b0s-8" vertex="1" connectable="0">
          <mxGeometry x="-0.3273" y="-1" relative="1" as="geometry">
            <mxPoint as="offset" />
          </mxGeometry>
        </mxCell>
        <mxCell id="67hWNu62ocXWBOCx5b0s-1" value="Aurora" style="strokeWidth=2;html=1;shape=mxgraph.flowchart.database;whiteSpace=wrap;" parent="1" vertex="1">
          <mxGeometry x="545" y="90" width="80" height="80" as="geometry" />
        </mxCell>
        <mxCell id="67hWNu62ocXWBOCx5b0s-11" style="edgeStyle=orthogonalEdgeStyle;rounded=0;orthogonalLoop=1;jettySize=auto;html=1;exitX=0.5;exitY=1;exitDx=0;exitDy=0;" parent="1" source="67hWNu62ocXWBOCx5b0s-2" target="67hWNu62ocXWBOCx5b0s-4" edge="1">
          <mxGeometry relative="1" as="geometry" />
        </mxCell>
        <mxCell id="67hWNu62ocXWBOCx5b0s-38" value="2" style="edgeLabel;html=1;align=center;verticalAlign=middle;resizable=0;points=[];" parent="67hWNu62ocXWBOCx5b0s-11" vertex="1" connectable="0">
          <mxGeometry x="-0.2615" relative="1" as="geometry">
            <mxPoint as="offset" />
          </mxGeometry>
        </mxCell>
        <mxCell id="67hWNu62ocXWBOCx5b0s-2" value="Raft-maxwell" style="rounded=0;whiteSpace=wrap;html=1;fillColor=#dae8fc;strokeColor=#6c8ebf;shadow=1;fontFamily=Tahoma;" parent="1" vertex="1">
          <mxGeometry x="735" y="100" width="120" height="60" as="geometry" />
        </mxCell>
        <mxCell id="67hWNu62ocXWBOCx5b0s-22" style="edgeStyle=orthogonalEdgeStyle;rounded=0;orthogonalLoop=1;jettySize=auto;html=1;exitX=0.5;exitY=1;exitDx=0;exitDy=0;" parent="1" target="67hWNu62ocXWBOCx5b0s-9" edge="1" source="67hWNu62ocXWBOCx5b0s-25">
          <mxGeometry relative="1" as="geometry">
            <mxPoint x="363.75" y="430" as="sourcePoint" />
          </mxGeometry>
        </mxCell>
        <mxCell id="67hWNu62ocXWBOCx5b0s-23" value="5 Update DML/DDL to mysql" style="edgeLabel;html=1;align=center;verticalAlign=middle;resizable=0;points=[];" parent="67hWNu62ocXWBOCx5b0s-22" vertex="1" connectable="0">
          <mxGeometry x="-0.0886" y="-2" relative="1" as="geometry">
            <mxPoint as="offset" />
          </mxGeometry>
        </mxCell>
        <mxCell id="67hWNu62ocXWBOCx5b0s-4" value="Kafka" style="shape=process;whiteSpace=wrap;html=1;backgroundOutline=1;" parent="1" vertex="1">
          <mxGeometry x="705" y="225" width="180" height="30" as="geometry" />
        </mxCell>
        <mxCell id="67hWNu62ocXWBOCx5b0s-5" value="Databend-cdc" style="rounded=0;whiteSpace=wrap;html=1;fillColor=#f8cecc;strokeColor=#b85450;shadow=1;fontFamily=Tahoma;" parent="1" vertex="1">
          <mxGeometry x="557.5" y="315" width="475" height="130" as="geometry" />
        </mxCell>
        <mxCell id="67hWNu62ocXWBOCx5b0s-7" value="S3" style="html=1;verticalLabelPosition=bottom;align=center;labelBackgroundColor=#ffffff;verticalAlign=top;strokeWidth=2;strokeColor=#0080F0;shadow=0;dashed=0;shape=mxgraph.ios7.icons.cloud;" parent="1" vertex="1">
          <mxGeometry x="747.5" y="545" width="95" height="50" as="geometry" />
        </mxCell>
        <mxCell id="67hWNu62ocXWBOCx5b0s-9" value="Aurora" style="strokeWidth=2;html=1;shape=mxgraph.flowchart.database;whiteSpace=wrap;" parent="1" vertex="1">
          <mxGeometry x="323.75" y="539" width="80" height="80" as="geometry" />
        </mxCell>
        <mxCell id="67hWNu62ocXWBOCx5b0s-10" value="Databend" style="strokeWidth=2;html=1;shape=mxgraph.flowchart.database;whiteSpace=wrap;" parent="1" vertex="1">
          <mxGeometry x="910" y="530" width="80" height="80" as="geometry" />
        </mxCell>
        <mxCell id="67hWNu62ocXWBOCx5b0s-13" style="edgeStyle=orthogonalEdgeStyle;rounded=0;orthogonalLoop=1;jettySize=auto;html=1;entryX=0.5;entryY=0.04;entryDx=0;entryDy=0;entryPerimeter=0;" parent="1" source="67hWNu62ocXWBOCx5b0s-25" target="67hWNu62ocXWBOCx5b0s-7" edge="1">
          <mxGeometry relative="1" as="geometry" />
        </mxCell>
        <mxCell id="67hWNu62ocXWBOCx5b0s-15" value="6 Write parquet to S3" style="edgeLabel;html=1;align=center;verticalAlign=middle;resizable=0;points=[];" parent="67hWNu62ocXWBOCx5b0s-13" vertex="1" connectable="0">
          <mxGeometry x="0.1569" y="-2" relative="1" as="geometry">
            <mxPoint as="offset" />
          </mxGeometry>
        </mxCell>
        <mxCell id="67hWNu62ocXWBOCx5b0s-34" value="" style="edgeStyle=orthogonalEdgeStyle;rounded=0;orthogonalLoop=1;jettySize=auto;html=1;" parent="1" source="67hWNu62ocXWBOCx5b0s-24" target="67hWNu62ocXWBOCx5b0s-25" edge="1">
          <mxGeometry relative="1" as="geometry" />
        </mxCell>
        <mxCell id="67hWNu62ocXWBOCx5b0s-60" style="edgeStyle=orthogonalEdgeStyle;rounded=0;orthogonalLoop=1;jettySize=auto;html=1;exitX=0;exitY=0.5;exitDx=0;exitDy=0;entryX=1;entryY=0.5;entryDx=0;entryDy=0;" parent="1" source="67hWNu62ocXWBOCx5b0s-24" target="67hWNu62ocXWBOCx5b0s-59" edge="1">
          <mxGeometry relative="1" as="geometry" />
        </mxCell>
        <mxCell id="67hWNu62ocXWBOCx5b0s-66" value="4 etl request" style="edgeLabel;html=1;align=center;verticalAlign=middle;resizable=0;points=[];" parent="67hWNu62ocXWBOCx5b0s-60" vertex="1" connectable="0">
          <mxGeometry x="0.271" y="-1" relative="1" as="geometry">
            <mxPoint as="offset" />
          </mxGeometry>
        </mxCell>
        <mxCell id="67hWNu62ocXWBOCx5b0s-24" value="Etl" style="rounded=0;whiteSpace=wrap;html=1;fillColor=#dae8fc;strokeColor=#6c8ebf;shadow=1;fontFamily=Tahoma;" parent="1" vertex="1">
          <mxGeometry x="598" y="395" width="100" height="40" as="geometry" />
        </mxCell>
        <mxCell id="67hWNu62ocXWBOCx5b0s-54" value="" style="edgeStyle=orthogonalEdgeStyle;rounded=0;orthogonalLoop=1;jettySize=auto;html=1;" parent="1" source="67hWNu62ocXWBOCx5b0s-25" target="67hWNu62ocXWBOCx5b0s-51" edge="1">
          <mxGeometry relative="1" as="geometry">
            <Array as="points">
              <mxPoint x="795" y="360" />
            </Array>
          </mxGeometry>
        </mxCell>
        <mxCell id="67hWNu62ocXWBOCx5b0s-25" value="Convert parquet" style="rounded=0;whiteSpace=wrap;html=1;fillColor=#dae8fc;strokeColor=#6c8ebf;shadow=1;fontFamily=Tahoma;" parent="1" vertex="1">
          <mxGeometry x="745" y="395" width="100" height="40" as="geometry" />
        </mxCell>
        <mxCell id="67hWNu62ocXWBOCx5b0s-12" style="edgeStyle=orthogonalEdgeStyle;rounded=0;orthogonalLoop=1;jettySize=auto;html=1;exitX=0.5;exitY=1;exitDx=0;exitDy=0;" parent="1" source="67hWNu62ocXWBOCx5b0s-4" target="67hWNu62ocXWBOCx5b0s-24" edge="1">
          <mxGeometry relative="1" as="geometry" />
        </mxCell>
        <mxCell id="67hWNu62ocXWBOCx5b0s-39" value="3" style="edgeLabel;html=1;align=center;verticalAlign=middle;resizable=0;points=[];" parent="67hWNu62ocXWBOCx5b0s-12" vertex="1" connectable="0">
          <mxGeometry x="-0.2" y="-1" relative="1" as="geometry">
            <mxPoint as="offset" />
          </mxGeometry>
        </mxCell>
        <mxCell id="VQkwUr7uzRTc27AWNzA8-2" style="edgeStyle=orthogonalEdgeStyle;rounded=0;orthogonalLoop=1;jettySize=auto;html=1;exitX=0.5;exitY=1;exitDx=0;exitDy=0;" parent="1" source="67hWNu62ocXWBOCx5b0s-51" target="67hWNu62ocXWBOCx5b0s-10" edge="1">
          <mxGeometry relative="1" as="geometry" />
        </mxCell>
        <mxCell id="VQkwUr7uzRTc27AWNzA8-3" value="7 Sync write to databend" style="edgeLabel;html=1;align=center;verticalAlign=middle;resizable=0;points=[];" parent="VQkwUr7uzRTc27AWNzA8-2" vertex="1" connectable="0">
          <mxGeometry x="-0.0133" y="-2" relative="1" as="geometry">
            <mxPoint as="offset" />
          </mxGeometry>
        </mxCell>
        <mxCell id="67hWNu62ocXWBOCx5b0s-51" value="Sync write parquet" style="rounded=0;whiteSpace=wrap;html=1;fillColor=#dae8fc;strokeColor=#6c8ebf;shadow=1;fontFamily=Tahoma;" parent="1" vertex="1">
          <mxGeometry x="900" y="340" width="100" height="40" as="geometry" />
        </mxCell>
        <mxCell id="67hWNu62ocXWBOCx5b0s-59" value="java-etl" style="rounded=0;whiteSpace=wrap;html=1;fillColor=#dae8fc;strokeColor=#6c8ebf;shadow=1;fontFamily=Tahoma;" parent="1" vertex="1">
          <mxGeometry x="300" y="390" width="127.5" height="50" as="geometry" />
        </mxCell>
      </root>
    </mxGraphModel>
  </diagram>
</mxfile>
